<svg width="30" height="32" viewBox="0 0 30 32" fill="none" xmlns="http://www.w3.org/2000/svg">
<path d="M5.83766 16.8255C5.85957 16.9734 5.85409 17.1295 5.82123 17.2938C6.0184 20.2898 7.59032 21.9589 10.537 22.3012C11.9309 22.4628 13.181 22.0027 14.2874 20.921C14.8954 20.3336 15.1131 19.586 15.5526 18.9616C15.714 18.7344 15.952 18.5733 16.2225 18.5084C16.493 18.4434 16.7775 18.4789 17.0232 18.6083L20.1369 20.2638C20.3497 20.377 20.5114 20.5669 20.5892 20.795C20.667 21.0232 20.6551 21.2723 20.5559 21.492C18.7676 25.4327 15.6991 27.7085 11.3503 28.3191C6.68798 28.9723 2.48981 25.8627 0.780966 21.7672C-0.111795 19.6257 -0.239136 17.3773 0.398941 15.0222C2.23102 8.23202 3.44282 4.35837 4.01791 0.328624C4.03077 0.23752 4.07608 0.154119 4.14551 0.0937465C4.21493 0.0333739 4.30382 8.59926e-05 4.39583 0H8.14214C8.19443 0 8.24458 0.0207735 8.28156 0.0577508C8.31854 0.0947281 8.33931 0.14488 8.33931 0.197174V12.8369C8.33947 12.9508 8.30997 13.0627 8.25377 13.1614C8.19756 13.2601 8.11659 13.3422 8.0189 13.3996C6.75918 14.1336 6.0321 15.2755 5.83766 16.8255Z" fill="white"/>
<path d="M19.2332 3.94759L19.8535 3.95991C21.1132 3.98456 22.0333 4.10779 22.6139 4.32961C27.1845 6.09322 29.641 9.37946 29.9833 14.1883C30.0298 14.851 29.9792 15.5768 29.8313 16.3655C29.6369 17.4034 29.4862 18.1195 29.3794 18.5138C27.7692 24.3524 26.6395 28.6519 25.9905 31.4123C25.9745 31.4856 25.9337 31.5513 25.8746 31.5984C25.8156 31.6455 25.742 31.6711 25.666 31.6711H22.1497C22.0763 31.6711 22.0059 31.6422 21.9536 31.5907C21.9014 31.5392 21.8715 31.4692 21.8704 31.3959L21.7923 20.6211L21.7718 20.2103L21.7595 19.3641C21.7582 19.2959 21.775 19.2287 21.8083 19.1694C21.8415 19.1102 21.8899 19.0611 21.9484 19.0273C23.5012 18.1154 24.1981 16.6462 24.0393 14.6196C23.9051 12.8916 23.1945 11.6675 21.9074 10.9473C19.6508 9.68207 17.6161 9.819 15.8032 11.358C15.0679 11.9824 14.6858 12.8656 14.1272 13.5557C13.7767 13.9857 13.4316 14.0774 13.092 13.8309C11.9049 12.9642 10.5739 12.7342 9.55932 11.6579C9.51031 11.6066 9.47518 11.5435 9.45722 11.4745C9.43925 11.4055 9.43905 11.3329 9.45662 11.2636C9.8633 9.6985 10.8615 8.58939 12.0158 7.21328C13.7945 5.09366 16.4974 4.04207 19.2332 3.94759Z" fill="white"/>
</svg>
